<svg xmlns="http://www.w3.org/2000/svg" viewBox="0 0 128 128">
  <defs>
    <radialGradient id="glow" cx="50%" cy="40%" r="60%">
      <stop offset="0" stop-color="#33f0a6" stop-opacity="0.9" />
      <stop offset="0.6" stop-color="#33f0a6" stop-opacity="0.35" />
      <stop offset="1" stop-color="#050807" stop-opacity="0" />
    </radialGradient>
  </defs>
  <rect width="128" height="128" rx="26" fill="#050807" />
  <circle cx="64" cy="52" r="60" fill="url(#glow)" />
  <path fill="#101714" d="M64 22c-22 0-40 18-40 40 0 14 8 27 20 34v14a6 6 0 0 0 6 6h3v6a5 5 0 0 0 10 0v-6h4v6a5 5 0 0 0 10 0v-6h3a6 6 0 0 0 6-6V96c12-7 20-20 20-34 0-22-18-40-40-40z" />
  <circle cx="46" cy="60" r="11" fill="#33f0a6" />
  <circle cx="82" cy="60" r="11" fill="#33f0a6" />
  <path fill="#33f0a6" d="M64 78c-10 0-18 6-18 14h36c0-8-8-14-18-14z" />
  <path fill="#101714" d="M46 90h36v18H46z" />
  <path stroke="#33f0a6" stroke-width="2" d="M54 90v18m10-18v18m10-18v18" />
</svg>
